<svg xmlns="http://www.w3.org/2000/svg" viewBox="0 0 48 48" width="48px" height="48px"><path fill="#CFD8DC" d="M37,42H11c-2.761,0-5-2.239-5-5V11c0-2.761,2.239-5,5-5h26c2.761,0,5,2.239,5,5v26C42,39.761,39.761,42,37,42z"/><path fill="#F44336" d="M37,12H11c-2.761,0-5-2.239-5-5l0,0c0-2.761,2.239-5,5-5h26c2.761,0,5,2.239,5,5l0,0C42,9.761,39.761,12,37,12z"/><path fill="#B0BEC5" d="M11,10h26c0.552,0,1,0.448,1,1s-0.448,1-1,1H11c-0.552,0-1-0.448-1-1S10.448,10,11,10z M11,14h26c0.552,0,1,0.448,1,1s-0.448,1-1,1H11c-0.552,0-1-0.448-1-1S10.448,14,11,14z M11,18h26c0.552,0,1,0.448,1,1s-0.448,1-1,1H11c-0.552,0-1-0.448-1-1S10.448,18,11,18z M11,22h26c0.552,0,1,0.448,1,1s-0.448,1-1,1H11c-0.552,0-1-0.448-1-1S10.448,22,11,22z M11,26h26c0.552,0,1,0.448,1,1s-0.448,1-1,1H11c-0.552,0-1-0.448-1-1S10.448,26,11,26z M11,30h26c0.552,0,1,0.448,1,1s-0.448,1-1,1H11c-0.552,0-1-0.448-1-1S10.448,30,11,30z"/><path fill="#37474F" d="M32 6H34V8H32zM14 6H16V8H14z"/><text x="14" y="34" font-family="Arial" font-size="16" font-weight="bold" fill="#757575">31</text></svg>
